<?xml version="1.0" encoding="UTF-8"?>
<svg width="25px" height="23px" viewBox="0 0 25 23" version="1.1" xmlns="http://www.w3.org/2000/svg" xmlns:xlink="http://www.w3.org/1999/xlink">
    <!-- Generator: sketchtool 48.1 (47250) - http://www.bohemiancoding.com/sketch -->
    <title>AD9AF098-709C-4852-9DE5-63B0C9C98D10</title>
    <desc>Created with sketchtool.</desc>
    <defs></defs>
    <g id="landing-page" stroke="none" stroke-width="1" fill="none" fill-rule="evenodd" transform="translate(-1242.000000, -5172.000000)">
        <path d="M1266.60701,5172.28199 C1266.49811,5172.18648 1266.34314,5172.16432 1266.2118,5172.22524 L1242.48004,5183.2517 C1242.35227,5183.31108 1242.27,5183.43855 1242.26846,5183.57941 C1242.26693,5183.72026 1242.34649,5183.84949 1242.47301,5183.91158 L1249.18907,5187.20755 C1249.31222,5187.26803 1249.45907,5187.25436 1249.56907,5187.17215 L1256.09892,5182.29168 L1250.97272,5187.56459 C1250.89958,5187.63984 1250.86228,5187.74289 1250.87033,5187.84747 L1251.38073,5194.49448 C1251.39206,5194.64177 1251.49079,5194.76771 1251.63113,5194.81385 C1251.66865,5194.82614 1251.70719,5194.83214 1251.7453,5194.83214 C1251.8498,5194.83214 1251.95146,5194.78731 1252.02218,5194.7054 L1255.58684,5190.57468 L1259.99349,5192.68019 C1260.08915,5192.7259 1260.19987,5192.7278 1260.29707,5192.68553 C1260.39426,5192.64318 1260.46827,5192.56084 1260.50001,5192.45977 L1266.71473,5172.66645 C1266.75818,5172.52823 1266.71583,5172.3775 1266.60701,5172.28199 Z" id="send" fill="#FFFFFF" fill-rule="nonzero"></path>
    </g>
</svg>