<?xml version="1.0" encoding="UTF-8"?>
<svg width="104px" height="90px" viewBox="0 0 104 90" version="1.1" xmlns="http://www.w3.org/2000/svg" xmlns:xlink="http://www.w3.org/1999/xlink">
    <!-- Generator: sketchtool 48.1 (47250) - http://www.bohemiancoding.com/sketch -->
    <title>609786D6-A20D-4863-A73E-CE6D02B532AB</title>
    <desc>Created with sketchtool.</desc>
    <defs>
        <polygon id="path-1" points="0 0.213360633 103.227431 0.213360633 103.227431 89.9448551 0 89.9448551"></polygon>
    </defs>
    <g id="landing-page" stroke="none" stroke-width="1" fill="none" fill-rule="evenodd" transform="translate(-120.000000, -925.000000)">
        <g id="ondemand" transform="translate(120.000000, 925.000000)">
            <g id="Group-6">
                <mask id="mask-2" fill="white">
                    <use xlink:href="#path-1"></use>
                </mask>
                <g id="Clip-2"></g>
                <path d="M94.0957426,53.6230693 C94.0865347,53.6206931 94.0761386,53.6186139 94.0666337,53.6162376 C93.2209901,53.4154455 92.3714851,53.9376238 92.169802,54.7835644 C86.8128713,77.1790099 64.3161386,90.9920792 41.9206931,85.6351485 C29.6239604,82.6948515 19.3253465,74.3328713 13.9220792,62.9007921 L10.7685149,63.5607921 C20.9673267,86.1270297 47.5283168,96.1529703 70.0954455,85.9553465 C82.7251485,80.2467327 92.0061386,69.0187129 95.2339604,55.5409901 C95.449901,54.6965347 94.9393069,53.8378218 94.0957426,53.6230693 Z" id="Fill-1" fill="#393939" mask="url(#mask-2)"></path>
                <path d="M21.1505941,56.5586139 C21.0983168,56.280297 20.9717822,56.020396 20.7840594,55.8080198 L14.6450495,48.9647525 L8.57554455,42.1921782 C8.04059406,41.5039604 7.04970297,41.3809901 6.3629703,41.9159406 C6.11346535,42.109901 5.9290099,42.3730693 5.83158416,42.6724752 L2.94475248,51.4152475 L0.0754455446,60.1473267 C-0.19039604,60.9769307 0.267920792,61.8644554 1.09871287,62.1291089 C1.34346535,62.2081188 1.60336634,62.2241584 1.85762376,62.1790099 L10.8579208,60.290198 L19.8929703,58.4010891 C20.7490099,58.239802 21.3118812,57.4149505 21.1505941,56.5586139 Z M10.260297,57.1978218 L3.92405941,58.5344554 L5.93821782,52.3862376 L7.96188119,46.2460396 L16.5873267,55.8706931 L10.260297,57.1978218 Z" id="Fill-3" fill="#393939" mask="url(#mask-2)"></path>
                <path d="M103.209802,29.2006931 C103.03099,28.3488119 102.19901,27.8034653 101.347426,27.9787129 L92.3471287,29.8690099 L83.3563366,31.7126733 C82.5,31.8739604 81.9371287,32.6988119 82.0984158,33.5551485 C82.1506931,33.8334653 82.2772277,34.0933663 82.4652475,34.3057426 L88.6054455,41.1490099 L94.6734653,47.9215842 C95.2084158,48.609505 96.1993069,48.7324752 96.8863366,48.1978218 C97.1355446,48.0038614 97.320297,47.7406931 97.4177228,47.440099 L103.138812,29.9569307 C103.223762,29.7145545 103.248119,29.4546535 103.209802,29.2006931 Z M97.3015842,37.7726733 L95.2886139,43.9116832 L86.6619802,34.2885149 L92.9887129,32.959901 L99.3157426,31.6324752 L97.3015842,37.7726733 Z" id="Fill-4" fill="#393939" mask="url(#mask-2)"></path>
                <path d="M33.1535644,4.20356436 C20.5241584,9.9109901 11.2431683,21.1390099 8.0150495,34.6179208 C7.7750495,35.4555446 8.25891089,36.3282178 9.09653465,36.5682178 C9.9329703,36.8085149 10.8068317,36.3246535 11.0468317,35.4870297 C11.059604,35.4415842 11.0711881,35.3952475 11.0806931,35.3489109 C16.4456436,12.9555446 38.9492079,-0.848019802 61.3425743,4.51811881 C73.6354455,7.46405941 83.9284158,15.8272277 89.3269307,27.2572277 L92.4807921,26.5981188 C82.2819802,4.03069307 55.7209901,-5.99524752 33.1535644,4.20356436 Z" id="Fill-5" fill="#393939" mask="url(#mask-2)"></path>
            </g>
            <path d="M68.1635644,17.2951485 C68.1635644,16.4236634 67.4569307,15.7182178 66.5857426,15.7182178 L46.1893069,15.7182178 C45.5070297,15.7182178 44.9037624,16.1569307 44.6913861,16.8053465 L35.2015842,45.8459406 C34.8718812,46.6520792 35.2583168,47.5722772 36.0647525,47.9028713 C36.2572277,47.9806931 36.4639604,48.0213861 36.6715842,48.020198 L43.800297,48.020198 L37.5626733,72.319901 C37.270396,73.14 37.6972277,74.0426733 38.5176238,74.3364356 C39.1277228,74.5544554 39.81,74.3768317 40.2359406,73.8885149 L66.6041584,43.2166337 C67.209802,42.5913861 67.1937624,41.5921782 66.5670297,40.9865347 C66.2607921,40.689505 65.8455446,40.5294059 65.4184158,40.5433663 L56.1689109,40.5433663 L67.9143564,18.159505 C68.0789109,17.9019802 68.1659406,17.6013861 68.1635644,17.2951485 Z M52.1682178,41.4344554 C51.7690099,42.2094059 52.0740594,43.159901 52.8493069,43.5588119 C53.0708911,43.6725743 53.3168317,43.7328713 53.5675248,43.7340594 L61.970198,43.7340594 L42.2061386,66.7143564 L47.320396,46.8611881 C47.5315842,46.0164356 47.0189109,45.160099 46.1741584,44.9477228 C46.05,44.9177228 45.9234653,44.9013861 45.7972277,44.9013861 L38.8458416,44.9013861 L47.329901,18.8809901 L63.9751485,18.8809901 L52.1682178,41.4344554 Z" id="Fill-7" fill="#5EDEA8"></path>
        </g>
    </g>
</svg>